Coordinates
version=1
nRows=49
nColumns=12
inDegrees=yes

Units are S.I. units (second, meters, Newtons, ...)
Angles are in degrees

endheader
time	SC_y	SC_z	SC_x	AC_y	AC_z	AC_x	GH_y	GH_z	GH_yy	EL_x	PS_y
       0.0              -56.21          13.98          77.64          43.39          9.539         -14.31          175.0          23.31          56.84           92.5          155.6
   0.01659              -56.21          13.98          77.63          43.38          9.536         -14.31          174.9          23.32          56.85          92.49          155.6
   0.03319               -56.2          13.98          77.62          43.38          9.533         -14.31          174.9          23.33          56.85          92.49          155.6
   0.04978               -56.2          13.99          77.62          43.38          9.531         -14.31          174.9          23.33          56.86          92.48          155.6
   0.06638              -56.19          13.99          77.61          43.38          9.527         -14.31          174.9          23.34          56.86          92.48          155.6
   0.08297              -56.19           14.0           77.6          43.38          9.524         -14.32          174.8          23.35          56.87          92.47          155.6
   0.09956              -56.19           14.0           77.6          43.37           9.52         -14.32          174.8          23.35          56.87          92.46          155.6
    0.1162              -56.18           14.0          77.59          43.37          9.517         -14.32          174.8          23.36          56.88          92.45          155.6
    0.1328              -56.18          14.01          77.58          43.37          9.512         -14.32          174.8          23.37          56.88          92.45          155.6
    0.1493              -56.17          14.01          77.57          43.37          9.508         -14.32          174.7          23.38          56.89          92.44          155.6
    0.1659              -56.16          14.02          77.56          43.36          9.503         -14.32          174.7          23.39           56.9          92.43          155.6
    0.1825              -56.16          14.03          77.55          43.36          9.498         -14.32          174.6           23.4           56.9          92.42          155.5
    0.1991              -56.15          14.03          77.53          43.35          9.493         -14.32          174.6          23.42          56.91          92.41          155.5
    0.2157              -56.14          14.04          77.52          43.35          9.487         -14.32          174.5          23.43          56.92          92.39          155.5
    0.2323              -56.14          14.05          77.51          43.35           9.48         -14.32          174.5          23.44          56.93          92.38          155.5
    0.2489              -56.13          14.05          77.49          43.34          9.473         -14.32          174.4          23.46          56.94          92.37          155.5
    0.2655              -56.12          14.06          77.47          43.34          9.466         -14.32          174.4          23.48          56.95          92.35          155.5
    0.2821              -56.11          14.07          77.45          43.33          9.457         -14.32          174.3          23.49          56.96          92.33          155.5
    0.2987               -56.1          14.08          77.43          43.32          9.448         -14.32          174.2          23.51          56.98          92.31          155.5
    0.3153              -56.08          14.09          77.41          43.32          9.438         -14.33          174.2          23.54          56.99          92.29          155.5
    0.3319              -56.07          14.11          77.39          43.31          9.428         -14.33          174.1          23.56          57.01          92.27          155.4
    0.3485              -56.06          14.12          77.36           43.3          9.416         -14.33          174.0          23.59          57.02          92.25          155.4
    0.3651              -56.04          14.13          77.33          43.29          9.402         -14.33          173.9          23.62          57.04          92.22          155.4
    0.3817              -56.02          14.15           77.3          43.28          9.388         -14.33          173.7          23.65          57.06          92.19          155.4
    0.3983               -56.0          14.17          77.26          43.27          9.371         -14.33          173.6          23.69          57.09          92.16          155.3
    0.4149              -55.98          14.19          77.22          43.26          9.353         -14.34          173.5          23.73          57.11          92.12          155.3
    0.4314              -55.95          14.21          77.18          43.24          9.333         -14.34          173.3          23.77          57.14          92.08          155.3
     0.448              -55.93          14.24          77.13          43.23           9.31         -14.34          173.1          23.82          57.18          92.03          155.3
    0.4646              -55.89          14.27          77.07          43.21          9.284         -14.34          172.9          23.88          57.21          91.98          155.2
    0.4812              -55.86           14.3           77.0          43.19          9.255         -14.35          172.7          23.94          57.26          91.92          155.2
    0.4978              -55.82          14.34          76.93          43.17          9.221         -14.35          172.4          24.02          57.31          91.85          155.1
    0.5144              -55.77          14.39          76.84          43.14          9.183         -14.36          172.1           24.1          57.36          91.77          155.0
     0.531              -55.71          14.44          76.74          43.11          9.139         -14.36          171.7           24.2          57.43          91.68          155.0
    0.5476              -55.65          14.49          76.63          43.07          9.087         -14.37          171.3          24.32           57.5          91.57          154.9
    0.5642              -55.58          14.56          76.49          43.03          9.027         -14.38          170.8          24.45          57.59          91.45          154.8
    0.5808              -55.49          14.65          76.34          42.98          8.956         -14.38          170.2          24.61          57.69          91.31          154.7
    0.5974              -55.38          14.74          76.15          42.92          8.871         -14.39          169.5           24.8          57.82          91.13          154.6
     0.614              -55.26          14.86          75.92          42.85           8.77         -14.41          168.7          25.02          57.96          90.92          154.4
    0.6306              -55.11           15.0          75.65          42.77          8.647         -14.42          167.7          25.29          58.14          90.67          154.2
    0.6472              -54.92          15.17          75.31          42.66          8.498         -14.44          166.5          25.63          58.36          90.37          154.0
    0.6638              -54.69          15.38           74.9          42.53          8.313         -14.46          165.0          26.04          58.63          89.99          153.7
    0.6804              -54.41          15.64          74.39          42.37          8.082         -14.49          163.1          26.55          58.96          89.52          153.3
    0.6969              -54.05          15.98          73.74          42.17          7.792         -14.52          160.8          27.19          59.39          88.92          152.8
    0.7135               -53.6           16.4          72.92          41.91          7.423         -14.57          157.8          28.01          59.92          88.17          152.3
    0.7301              -53.01          16.94          71.86          41.59          6.951         -14.63          153.9          29.06          60.61           87.2          151.5
    0.7467              -52.26          17.63          70.51          41.16          6.345          -14.7          149.0          30.41          61.49          85.96          150.6
    0.7633              -51.31          18.51          68.78          40.63           5.57         -14.79          142.7          32.13          62.62          84.37          149.3
    0.7799              -50.11          19.63          66.61          39.95          4.597         -14.91          134.8          34.29          64.04          82.38          147.8
    0.7965              -48.64          20.98          63.97          39.12          3.411         -15.05          125.1          36.92          65.76          79.95          145.9
